<svg viewBox="0 0 20 21" fill="none">
    <path d="M19.4792 7.64814C19.1365 7.30733 18.5825 7.30885 18.2417 7.65146L7.72312 18.2269C6.35846 19.5916 4.14205 19.5916 2.77485 18.2251C1.40867 16.8582 1.40867 14.6418 2.77501 13.2755L13.605 2.38864C14.457 1.53668 15.8421 1.53668 16.6966 2.39048C17.5508 3.24469 17.5508 4.62969 16.6964 5.48415L7.72476 14.4557C7.72418 14.4563 7.72369 14.4569 7.72312 14.4575C7.38133 14.7974 6.82896 14.7969 6.48786 14.4559C6.1462 14.1142 6.1462 13.5604 6.48786 13.2188L10.8184 8.88733C11.1601 8.54558 11.16 7.99153 10.8183 7.64986C10.4765 7.30819 9.92246 7.30824 9.58079 7.64998L5.25032 11.9813C4.22527 13.0064 4.22527 14.6682 5.2504 15.6933C6.27548 16.7184 7.9373 16.7184 8.96243 15.6933C8.96362 15.6921 8.96456 15.6908 8.96571 15.6896L17.9338 6.72154C19.4717 5.18366 19.4717 2.6906 17.9338 1.15273C16.3957 -0.384242 13.9028 -0.384242 12.3659 1.15273L1.5359 12.0397C-0.512214 14.0878 -0.512214 17.4119 1.53738 19.4626C3.58833 21.5124 6.91255 21.5124 8.96227 19.4627L19.4825 8.88561C19.8233 8.54295 19.8218 7.98895 19.4792 7.64814Z" fill="currentColor"/>
</svg>
