<svg viewBox="0 0 12 6" fill="none" xmlns="http://www.w3.org/2000/svg">
    <path fill-rule="evenodd" clip-rule="evenodd" d="M11.6465 0.146345C11.8418 0.341607 11.8418 0.65819 11.6465 0.853452L6.7676 5.73231C6.5333 5.96662 6.15341 5.96662 5.9191 5.73233L3.39341 3.20691C3.19814 3.01166 3.19812 2.69508 3.39337 2.4998C3.58862 2.30453 3.90521 2.30451 4.10048 2.49977L6.34333 4.74238L10.9394 0.146343C11.1347 -0.0489186 11.4512 -0.0489183 11.6465 0.146345Z" fill="currentColor"/>
    <path d="M9.17437 1.20436C9.36692 1.00889 9.36602 0.694342 9.17167 0.499985C8.97641 0.304722 8.65983 0.304719 8.46456 0.49998L5.63635 3.32815L6.3435 4.03522L9.17437 1.20436Z" fill="currentColor"/>
    <path d="M4.92927 5.44942L4.64602 5.73267C4.41172 5.96697 4.03184 5.96698 3.79752 5.73268L0.918267 2.85369C0.722996 2.65844 0.722981 2.34186 0.918235 2.14658C1.11349 1.95131 1.43007 1.9513 1.62534 2.14655L4.92927 5.44942Z" fill="currentColor"/>
</svg>
