<svg xmlns="http://www.w3.org/2000/svg" viewBox="0 0 23 24" fill="none">
    <path fill-rule="evenodd" clip-rule="evenodd" d="M20 11C20 15.9706 15.9706 20 11 20C6.02944 20 2 15.9706 2 11C2 6.02944 6.02944 2 11 2C15.9706 2 20 6.02944 20 11ZM17.4774 19.8916C15.6604 21.2175 13.4216 22 11 22C4.92487 22 0 17.0751 0 11C0 4.92487 4.92487 0 11 0C17.0751 0 22 4.92487 22 11C22 13.9322 20.8527 16.5965 18.9825 18.5683L22.7071 22.2929C23.0976 22.6834 23.0976 23.3166 22.7071 23.7071C22.3166 24.0976 21.6834 24.0976 21.2929 23.7071L17.4774 19.8916Z" fill="currentColor" />
</svg>
