<svg viewBox="0 0 26 25" fill="none" xmlns="http://www.w3.org/2000/svg">
    <path d="M22.1059 0.292893C22.4964 -0.0976309 23.1296 -0.0976312 23.5201 0.292893L24.9343 1.70711C25.3248 2.09763 25.3248 2.7308 24.9343 3.12132L10.2992 17.7565C10.1596 17.8961 9.98176 17.9912 9.78817 18.0299L6.54953 18.6777L7.19726 15.439C7.23598 15.2454 7.33113 15.0676 7.47073 14.928L22.1059 0.292893Z" fill="currentColor"/>
    <path d="M16.5703 3.00009H2L2 23.0001H22V8.88412L24 6.88413V23.0001C24 24.1047 23.1046 25.0001 22 25.0001H2C0.89543 25.0001 0 24.1047 0 23.0001V3.00009C0 1.89552 0.895431 1.00009 2 1.00009H18.5703L16.5703 3.00009Z" fill="currentColor"/>
</svg>
