<svg viewBox="0 0 26 26" fill="none" xmlns="http://www.w3.org/2000/svg">
<path d="M24.7263 25.0352C24.5909 25.6784 24.2016 26 23.5585 26C17.0596 26 11.5085 23.6981 6.90508 19.0943C2.30169 14.4905 -3.90731e-07 8.93889 -1.0663e-07 2.43942C-7.85162e-08 1.79624 0.32156 1.40695 0.96468 1.27154L6.24503 0.052892C6.88815 -0.116365 7.34511 0.120595 7.61589 0.763772L10.053 6.45081C10.2899 6.99243 10.1714 7.46635 9.69757 7.87257L6.65121 10.3606C7.56512 12.3579 8.80059 14.1182 10.3576 15.6415C11.9146 17.1986 13.6748 18.4342 15.638 19.3482L18.1766 16.3016C18.5489 15.8277 19.0228 15.7092 19.5982 15.9461L25.2848 18.3834C25.894 18.6542 26.1141 19.1112 25.9448 19.7544L24.7263 25.0352Z" fill="currentColor"/>
</svg>
